<?xml version="1.0" encoding="utf-8"?>
<!-- Generator: Adobe Illustrator 26.0.1, SVG Export Plug-In . SVG Version: 6.00 Build 0)  -->
<svg version="1.1" id="Layer_1" xmlns="http://www.w3.org/2000/svg" xmlns:xlink="http://www.w3.org/1999/xlink" x="0px" y="0px"
	 viewBox="0 0 332.57 65.71" style="enable-background:new 0 0 332.57 65.71;" xml:space="preserve">
<style type="text/css">
	.st0{fill:#EF4A24;}
	.st1{font-family:'ArialRoundedMTBold';}
	.st2{font-size:43.333px;}
	.st3{fill:url(#SVGID_1_);}
	.st4{fill:url(#SVGID_00000130649095128239807330000006498669121836909960_);}
	.st5{fill:url(#SVGID_00000080185563559164826410000009870439662183347385_);}
	.st6{fill:url(#SVGID_00000095313307894612809830000005509540075270379706_);}
	.st7{fill:#663614;}
	.st8{fill:#C99150;}
	.st9{fill:#967F5B;}
	.st10{fill:#937B5A;}
	.st11{opacity:0.4;fill:#010101;}
</style>
<text transform="matrix(1 0 0 1 121.9616 46.8731)" class="st0 st1 st2">Shipgram</text>
<g>
	<g>
		<path class="st0" d="M114.4,26.64c0.02,5.03-1.57,9.52-4.52,13.57c-2.71,3.72-6.29,6.27-10.59,7.77c-2.4,0.84-4.92,1.35-7.39,2.01
			c-1.74,0.47-3.48,0.93-5.22,1.4c-2.7,0.72-5.41,1.44-8.11,2.17c-3.11,0.84-6.22,1.71-9.34,2.54c-2.05,0.55-4.13,1.02-6.18,1.57
			c-3.48,0.93-6.95,1.91-10.44,2.84c-1.28,0.34-2.54,0.92-3.95,0.45c-1.71-0.57-2.83-1.69-3.19-3.44c-0.38-1.84,0.31-3.39,1.82-4.44
			c0.76-0.53,1.73-0.83,2.64-1.08c3.11-0.86,6.24-1.65,9.36-2.48c1.4-0.38,2.81-0.75,4.18-1.24c1.67-0.59,2.66-2.19,2.69-4.11
			c0.03-1.78-0.99-3.31-2.54-4.08c-1.6-0.8-3.1-0.32-4.64,0.08c-0.8,0.21-1.59,0.47-2.4,0.69c-2.7,0.73-5.4,1.45-8.1,2.17
			c-3.1,0.82-6.2,1.61-9.3,2.43c-2.45,0.65-4.92,1.22-7.32,2c-2.35,0.76-5.49-1.63-5.45-3.89c0.05-2.54,1.16-4.2,3.61-4.84
			c3.49-0.91,6.98-1.81,10.46-2.74c2.78-0.74,5.56-1.49,8.33-2.26c2.12-0.59,3.65-3.18,3.02-5.36c-0.8-2.77-3.02-4.07-5.81-3.31
			c-5.25,1.42-10.51,2.79-15.76,4.2c-3.12,0.84-6.22,1.73-9.34,2.54c-1.61,0.42-3.23,0.86-4.87,1c-1.76,0.15-3.61-1.63-3.99-3.3
			c-0.73-3.23,1.52-4.99,3.68-5.55c4.35-1.13,8.68-2.33,13.03-3.5c3.56-0.95,7.12-1.89,10.67-2.85c2-0.54,3.99-1.12,5.99-1.65
			c3.07-0.81,6.15-1.59,9.22-2.41c2.62-0.7,5.23-1.44,7.85-2.15c2.89-0.78,5.78-1.54,8.67-2.31c2.97-0.79,5.94-1.56,8.9-2.35
			c2.52-0.67,5-1.49,7.55-2.03c3.06-0.64,6.13-0.52,9.22,0.16c3.14,0.69,5.98,2.02,8.53,3.86c2.15,1.56,4,3.53,5.46,5.8
			C113.22,18.23,114.37,22.27,114.4,26.64z"/>
		<path class="st0" d="M20.55,47.14c0.01,1.65-1.19,3.67-3.19,4.19c-2.52,0.67-5.03,1.39-7.55,2.06c-2.14,0.57-4.53-0.67-5.29-2.69
			c-0.79-2.1,0.06-4.6,2.09-5.51c1.48-0.66,3.12-0.99,4.69-1.44c0.96-0.28,1.92-0.52,2.89-0.76c2.1-0.53,4.08-0.43,5.46,1.48
			c0.54,0.74,0.76,1.71,1.12,2.58C20.7,47.08,20.62,47.11,20.55,47.14z"/>
	</g>
	<g>
		
			<linearGradient id="SVGID_1_" gradientUnits="userSpaceOnUse" x1="-2798.5222" y1="255.9434" x2="-2779.2546" y2="255.9434" gradientTransform="matrix(-0.9859 0.1673 0.1673 0.9859 -2715.9563 238.3918)">
			<stop  offset="0" style="stop-color:#CEBA96"/>
			<stop  offset="1" style="stop-color:#AF8E61"/>
		</linearGradient>
		<polygon class="st3" points="68.64,35.83 82.98,31.54 84.22,12.46 69.16,19.11 		"/>
		
			<linearGradient id="SVGID_00000018238668862703302530000001157928295795276677_" gradientUnits="userSpaceOnUse" x1="-2814.0652" y1="266.4502" x2="-2796.4138" y2="255.0872" gradientTransform="matrix(-0.9859 0.1673 0.1673 0.9859 -2715.9563 238.3918)">
			<stop  offset="0" style="stop-color:#EBD6B4"/>
			<stop  offset="1" style="stop-color:#F5E9D7"/>
		</linearGradient>
		<polygon style="fill:url(#SVGID_00000018238668862703302530000001157928295795276677_);" points="101.66,39.18 82.98,31.54 
			84.22,12.46 102.78,23.85 		"/>
		
			<linearGradient id="SVGID_00000004516407008063471370000007857206407772350100_" gradientUnits="userSpaceOnUse" x1="-2813.6597" y1="260.0564" x2="-2807.4253" y2="260.0564" gradientTransform="matrix(-0.9859 0.1673 0.1673 0.9859 -2715.9563 238.3918)">
			<stop  offset="0" style="stop-color:#FFFBF5"/>
			<stop  offset="0" style="stop-color:#FEF8EE"/>
			<stop  offset="1" style="stop-color:#FFFFFF"/>
		</linearGradient>
		<path style="fill:url(#SVGID_00000004516407008063471370000007857206407772350100_);" d="M100.95,28.09l-5.28-2.88
			c-0.23-0.12-0.36-0.37-0.34-0.62l0.2-3.28c0.01-0.22,0.25-0.35,0.44-0.24l5.36,3.17c0.22,0.13,0.35,0.38,0.32,0.63l-0.27,3
			C101.36,28.07,101.13,28.2,100.95,28.09z"/>
		<g>
			
				<linearGradient id="SVGID_00000092447867231927277860000004489890793036466593_" gradientUnits="userSpaceOnUse" x1="-2792.741" y1="274.5925" x2="-2797.7581" y2="266.5632" gradientTransform="matrix(-0.9859 0.1673 0.1673 0.9859 -2715.9563 238.3918)">
				<stop  offset="0" style="stop-color:#936D34"/>
				<stop  offset="1" style="stop-color:#7B5727"/>
			</linearGradient>
			<polygon style="fill:url(#SVGID_00000092447867231927277860000004489890793036466593_);" points="101.66,39.18 82.98,31.54 
				68.64,35.83 90.76,41.01 			"/>
		</g>
		<g>
			<path class="st7" d="M82.98,31.54c-0.6,0.17-1.2,0.34-1.8,0.51l-1.8,0.52c-0.6,0.17-1.2,0.35-1.79,0.53l-1.79,0.53L74,34.18
				c-0.6,0.18-1.19,0.36-1.79,0.54l-1.79,0.55c-0.59,0.19-1.19,0.37-1.78,0.56c0.6-0.17,1.2-0.34,1.8-0.51l1.8-0.52
				c0.6-0.17,1.2-0.35,1.79-0.53l1.79-0.53l1.79-0.54c0.6-0.18,1.19-0.36,1.79-0.54l1.79-0.55C81.79,31.91,82.38,31.73,82.98,31.54z
				"/>
		</g>
		<g>
			<polygon class="st8" points="75.84,33.73 93.71,39.35 96.14,40.11 96.3,40.08 93.87,39.32 75.97,33.7 			"/>
		</g>
		<g>
			<path class="st9" d="M92.54,39.6l0.03,0.01l2.28,0.72l2.69-0.45l-2.25-0.71l-0.02-0.01c-0.04,0.02-0.09,0.03-0.17,0.05
				c-0.09,0.02-0.13,0.01-0.17,0.01c-0.05,0-0.09-0.01-0.19,0.01c-0.1,0.02-0.15,0.04-0.21,0.06c-0.05,0.02-0.1,0.04-0.18,0.05
				c-0.09,0.02-0.13,0.01-0.17,0.01c-0.05,0-0.09-0.01-0.19,0.01c-0.1,0.02-0.15,0.04-0.21,0.06c-0.05,0.02-0.09,0.04-0.18,0.05
				s-0.13,0.01-0.17,0.01c-0.05,0-0.09-0.01-0.19,0.01c-0.1,0.02-0.15,0.04-0.21,0.06c-0.05,0.02-0.09,0.04-0.18,0.05
				c-0.09,0.02-0.13,0.01-0.17,0.01C92.63,39.6,92.6,39.59,92.54,39.6z"/>
			<path class="st9" d="M74.21,34.17l1.92,0.6l0.03,0.01c0.05,0,0.11-0.01,0.21-0.04c0.1-0.03,0.14-0.06,0.18-0.08
				c0.04-0.02,0.07-0.04,0.16-0.07c0.09-0.03,0.14-0.03,0.19-0.03c0.06,0,0.11-0.01,0.21-0.04c0.1-0.03,0.14-0.06,0.18-0.08
				c0.04-0.02,0.07-0.05,0.16-0.07c0.09-0.03,0.14-0.03,0.19-0.03c0.06,0,0.11-0.01,0.21-0.04c0.1-0.03,0.14-0.06,0.18-0.08
				c0.04-0.02,0.07-0.04,0.16-0.07c0.09-0.03,0.14-0.03,0.19-0.03c0.06,0,0.11-0.01,0.21-0.04c0.1-0.03,0.14-0.06,0.18-0.08
				c0.04-0.02,0.07-0.05,0.16-0.07c0.09-0.03,0.14-0.03,0.19-0.03c0.06,0,0.11-0.01,0.21-0.04c0.02-0.01,0.05-0.01,0.06-0.02
				l-0.02-0.01l-1.94-0.61l0,0L74.21,34.17z"/>
		</g>
		<g>
			<path class="st10" d="M74.21,34.17l3.2-0.96l0.02-2.16c-0.08-0.02-0.14-0.06-0.26-0.03c-0.18,0.06-0.14,0.2-0.32,0.26
				c-0.18,0.06-0.23-0.08-0.41-0.02c-0.18,0.06-0.14,0.2-0.32,0.26c-0.18,0.06-0.23-0.08-0.41-0.02c-0.18,0.06-0.14,0.2-0.32,0.26
				c-0.18,0.06-0.23-0.08-0.41-0.02c-0.18,0.06-0.14,0.2-0.32,0.26c-0.18,0.06-0.23-0.08-0.41-0.02c-0.01,0-0.02,0.01-0.03,0.01
				L74.21,34.17z"/>
			<path class="st10" d="M74.09,18.61c0.06-0.07,0.07-0.15,0.19-0.2c0.18-0.07,0.23,0.07,0.41,0c0.18-0.07,0.13-0.21,0.31-0.28
				c0.18-0.07,0.23,0.07,0.41,0c0.18-0.07,0.13-0.21,0.31-0.28c0.18-0.07,0.23,0.07,0.41,0c0.18-0.07,0.13-0.21,0.31-0.28
				c0.18-0.07,0.23,0.07,0.41,0c0.18-0.07,0.13-0.21,0.31-0.28c0.16-0.06,0.22,0.04,0.37,0.01l0.02-1.91l-3.49,1.54L74.09,18.61z"/>
		</g>
		<g>
			<g>
				<path class="st11" d="M89.22,30.6l1.68,0.79l-0.13,2.01l-1.7-0.71L89.22,30.6z M90.8,31.46l-1.5-0.7l-0.14,1.86l1.51,0.64
					L90.8,31.46z"/>
			</g>
			<g>
				<path class="st11" d="M87.13,29.62l1.85,0.88l-0.16,2.11l-1.88-0.79L87.13,29.62z M88.88,30.56l-1.65-0.78l-0.17,1.95l1.68,0.71
					L88.88,30.56z"/>
			</g>
			<g>
				<path class="st11" d="M84.81,28.52l2.06,0.98l-0.19,2.21l-2.1-0.88L84.81,28.52z M86.75,29.56l-1.84-0.87l-0.2,2.05l1.87,0.79
					L86.75,29.56z"/>
			</g>
			<path class="st11" d="M88.41,31.05c-0.02,0.23-0.19,0.36-0.39,0.3L88,31.74l0.1,0.04l-0.01,0.12l0.15,0.06l-0.01,0.12l-0.61-0.26
				l0.01-0.12l0.15,0.07l0.01-0.12l0.1,0.04l0.03-0.38c-0.2-0.12-0.34-0.38-0.32-0.62l0.04-0.47l0.8,0.37L88.41,31.05z"/>
			<polygon class="st11" points="86.41,31.18 86.4,31.3 84.93,30.67 84.95,30.55 			"/>
			<polygon class="st11" points="86.15,30.97 86.04,30.92 85.92,30.87 86.01,29.93 86.12,29.98 86.23,30.03 			"/>
			<polygon class="st11" points="85.47,30.68 85.36,30.63 85.24,30.58 85.33,29.63 85.45,29.68 85.56,29.73 			"/>
			<polygon class="st11" points="86.17,29.47 86.4,30.02 85.85,29.77 			"/>
			<polygon class="st11" points="85.5,29.16 85.74,29.71 85.17,29.46 			"/>
			<path class="st11" d="M90.06,31.31c0.38,0.18,0.59,0.55,0.56,0.88l-0.61-0.27l-0.05,0.67c0,0.06,0.03,0.13,0.08,0.15
				c0.05,0.02,0.09-0.01,0.1-0.07l0-0.06l0.09,0.04l0,0.06c-0.01,0.12-0.1,0.19-0.2,0.14c-0.1-0.04-0.18-0.18-0.17-0.3l0.05-0.67
				l-0.53-0.24C89.42,31.3,89.67,31.13,90.06,31.31z"/>
		</g>
	</g>
</g>
</svg>
